<svg id="Layer_2" data-name="Layer 2" xmlns="http://www.w3.org/2000/svg" viewBox="0 0 361.84 93.83"><defs><style>.cls-1{fill:#667fea;}.cls-1,.cls-2,.cls-3{stroke:#3e3d4d;stroke-miterlimit:10;}.cls-2{fill:#667fcd;}.cls-3{fill:#697fff;}.cls-4{fill:#a3a3c9;}</style></defs><path class="cls-1" d="M46.47,33.5c-31.28,5.08-30.62,6.58-37.81,21-18.69-12.63,0-37.19,22.1-41.12C57.43,8.61,58,.61,58,.61,63.65-1.76,70.47,30.54,46.47,33.5Z" transform="translate(-0.5 0.01)"/><path class="cls-2" d="M53.78,47.43c-11,.9-23.82,7.39-32.13,16.37,1.43-2.06,2.48-3.34,2.48-3.34-17.7-3.29-21.08-7.29-7.27-18.77C25.84,53.52,40.56,44,53.78,47.43Z" transform="translate(-0.5 0.01)"/><path class="cls-3" d="M52.94,71.63C23.67,84.17,24.29,89.47,30.72,93.25,7.11,92.4,14.89,73.57,22.31,63.11c9.19-9.29,34.46-26.19,41-8.37C64.2,66.59,52.94,71.63,52.94,71.63Z" transform="translate(-0.5 0.01)"/><path class="cls-4" d="M82.35,25.81h7.22l6.35,17.57c.8,2.29,1.52,4.71,2.31,7.06h.22c.8-2.35,1.48-4.77,2.27-7.06l6.22-17.57h7.22v36h-5.85V45.32c0-3.32.5-8.11.81-11.44h-.22L106,42.24,100.08,58.4H96.3L90.36,42.24,87.5,33.88h-.22c.31,3.33.81,8.12.81,11.44V61.77H82.35Z" transform="translate(-0.5 0.01)"/><path class="cls-4" d="M121,72.31l1.17-4.91a7.11,7.11,0,0,0,1.93.38c2.84,0,4.49-1.94,5.39-4.64l.51-1.7L119.41,34.76h6.42L130.5,48c.81,2.4,1.58,5.06,2.37,7.63h.22c.69-2.5,1.37-5.16,2.07-7.63l4-13.24h6.11L135.54,63c-2.25,6.09-5.09,9.86-11,9.86A10.52,10.52,0,0,1,121,72.31Z" transform="translate(-0.5 0.01)"/><path class="cls-4" d="M161.55,25.81h11.33c8,0,13.9,2.77,13.9,11.08,0,8-5.94,11.66-13.68,11.66h-5.17V61.77h-6.38Zm11,17.64c5.37,0,7.92-2.14,7.92-6.56s-2.79-6-8.14-6h-4.42V43.45Z" transform="translate(-0.5 0.01)"/><path class="cls-4" d="M190,48.29c0-9,6.11-14.19,12.85-14.19s12.84,5.19,12.84,14.19-6.11,14.14-12.84,14.14S190,57.24,190,48.29Zm19.18,0c0-5.41-2.37-9-6.33-9s-6.34,3.61-6.34,9,2.38,9,6.34,9S209.2,53.7,209.2,48.29Z" transform="translate(-0.5 0.01)"/><path class="cls-4" d="M222,34.76h5.19l.48,4.82h.18c1.92-3.52,4.78-5.48,7.67-5.48a6.92,6.92,0,0,1,3.06.55l-1.1,5.5a8.94,8.94,0,0,0-2.77-.44c-2.16,0-4.75,1.47-6.38,5.59V61.77H222Z" transform="translate(-0.5 0.01)"/><path class="cls-4" d="M243.46,52.67V39.8h-3.85V35.05l4.18-.29.74-7.37h5.26v7.37h6.89v5h-6.89V52.65c0,3.18,1.23,4.74,3.83,4.74a8.4,8.4,0,0,0,2.81-.61l1.08,4.66a17.31,17.31,0,0,1-5.52,1C245.77,62.43,243.46,58.49,243.46,52.67Z" transform="translate(-0.5 0.01)"/><path class="cls-4" d="M259.81,35.05l4-.29h11.29v5H259.81ZM263.44,32c0-5.6,2.58-9.71,9-9.71a13.75,13.75,0,0,1,4.94.95l-1.2,4.73a7.57,7.57,0,0,0-2.93-.64c-2.24,0-3.43,1.42-3.43,4.56V61.77h-6.34Z" transform="translate(-0.5 0.01)"/><path class="cls-4" d="M277.47,48.29c0-9,6.11-14.19,12.84-14.19s12.85,5.19,12.85,14.19-6.11,14.14-12.85,14.14S277.47,57.24,277.47,48.29Zm19.18,0c0-5.41-2.38-9-6.34-9s-6.33,3.61-6.33,9,2.37,9,6.33,9S296.65,53.7,296.65,48.29Z" transform="translate(-0.5 0.01)"/><path class="cls-4" d="M309.11,54.82V22.92h6.34V55.15c0,1.56.7,2.11,1.36,2.11a3.68,3.68,0,0,0,1-.11l.8,4.73a8.86,8.86,0,0,1-3.35.55C310.76,62.43,309.11,59.53,309.11,54.82Z" transform="translate(-0.5 0.01)"/><path class="cls-4" d="M323.29,26.44A3.93,3.93,0,1,1,327.21,30,3.62,3.62,0,0,1,323.29,26.44Zm.73,8.32h6.33v27H324Z" transform="translate(-0.5 0.01)"/><path class="cls-4" d="M336.65,48.29c0-9,6.11-14.19,12.84-14.19s12.85,5.19,12.85,14.19-6.12,14.14-12.85,14.14S336.65,57.24,336.65,48.29Zm19.18,0c0-5.41-2.38-9-6.34-9s-6.33,3.61-6.33,9,2.37,9,6.33,9S355.83,53.7,355.83,48.29Z" transform="translate(-0.5 0.01)"/></svg>